<?xml version="1.0" standalone="no"?>
<!DOCTYPE svg PUBLIC "-//W3C//DTD SVG 20010904//EN"
 "http://www.w3.org/TR/2001/REC-SVG-20010904/DTD/svg10.dtd">
<svg version="1.0" xmlns="http://www.w3.org/2000/svg"
 width="624.000000pt" height="624.000000pt" viewBox="0 0 624.000000 624.000000"
 preserveAspectRatio="xMidYMid meet">
<metadata>
Created by potrace 1.14, written by Peter Selinger 2001-2017
</metadata>
<g transform="translate(0.000000,624.000000) scale(0.100000,-0.100000)"
fill="#000000" stroke="none">
<path d="M2921 6144 c-101 -52 -190 -94 -197 -94 -7 0 -14 -3 -16 -8 -5 -11
-248 -133 -248 -124 0 4 -4 2 -8 -4 -4 -6 -65 -40 -137 -75 -71 -35 -133 -67
-136 -72 -3 -5 -9 -8 -13 -7 -9 2 -219 -103 -227 -113 -3 -5 -8 -7 -10 -6 -4
3 -780 -382 -789 -391 -3 -3 -126 -65 -274 -139 l-270 -133 30 -16 c16 -9 31
-17 34 -18 15 -3 76 -33 83 -41 5 -4 12 -8 15 -9 14 -1 132 -62 149 -75 9 -8
17 -12 17 -10 1 5 287 -137 305 -152 8 -7 17 -11 20 -11 7 2 159 -72 176 -85
5 -5 21 -12 35 -17 14 -5 198 -97 410 -204 212 -106 387 -194 390 -195 3 -1
34 -16 70 -35 36 -19 76 -39 90 -45 25 -10 247 -122 285 -143 11 -6 107 -54
214 -107 l194 -97 203 102 c112 56 206 101 210 100 4 -1 10 2 13 7 7 10 613
313 625 312 5 0 12 3 15 8 7 10 778 395 787 393 4 -1 10 2 13 7 3 4 149 80
324 167 174 87 317 161 317 164 0 4 -64 38 -143 77 -78 38 -145 74 -148 78 -3
5 -8 8 -10 6 -3 -2 -501 244 -599 296 -19 11 -37 20 -40 20 -3 1 -133 66 -290
144 -157 79 -287 143 -290 143 -3 0 -18 9 -33 20 -15 11 -33 21 -40 22 -14 3
-68 28 -82 38 -22 16 -725 366 -725 360 0 -3 -8 1 -17 9 -16 13 -90 50 -96 48
-1 0 -85 -43 -186 -95z"/>
<path d="M322 2928 c2 -1047 6 -1583 13 -1584 6 0 246 -119 535 -264 289 -145
527 -264 530 -265 3 0 16 -7 30 -15 14 -8 27 -15 30 -15 3 -1 147 -73 320
-160 173 -87 317 -159 320 -160 6 -2 419 -208 451 -226 13 -7 26 -14 29 -14 3
0 73 -35 157 -78 84 -42 154 -74 156 -69 3 4 5 714 5 1579 l0 1572 -1282 641
c-704 352 -1284 640 -1289 640 -4 0 -6 -712 -5 -1582z"/>
<path d="M5864 4497 c-11 -7 -70 -36 -130 -65 -60 -30 -142 -71 -181 -91 -40
-21 -73 -36 -73 -33 0 2 -6 0 -12 -6 -7 -6 -78 -42 -158 -82 -80 -39 -152 -75
-160 -80 -44 -25 -502 -250 -509 -250 -5 0 -11 -3 -13 -7 -1 -5 -97 -54 -213
-111 -115 -56 -217 -107 -225 -111 -8 -5 -205 -104 -437 -220 l-423 -211 0
-48 c-3 -353 0 -3105 3 -3108 2 -3 48 18 101 45 53 27 96 47 96 43 0 -4 4 -2
8 3 8 12 1585 801 1591 796 2 -1 7 1 10 6 8 10 298 155 307 153 4 -1 10 2 13
7 3 4 105 58 226 118 l220 110 1 1578 c0 1106 -3 1577 -10 1576 -6 -1 -20 -6
-32 -12z"/>
</g>
</svg>
